User Type,Username,Date,Text
,ronnepon66,2010-06-16T22:38Z,dank je wel namens mijn dochters...!! groetjes
,brabo001,2010-06-17T16:37Z,"Hey diddle, het downloaden stopt bij 83,8% !?"
,schatje500,2010-06-23T10:04Z,"Wel blijven SEEDEN, PLEASE ?!?!"
,revavoom,2011-12-07T19:31Z,"Nice try, but:

No cropping
No resize
obsolete video codec


General 
Complete name : H:\films\Mega Toby special.NLT-Release.avi 
Format : AVI 
Format/Info : Audio Video Interleave 
File size : 818 MiB 
Duration : 1h 25mn 
Overall bit rate : 1 340 Kbps 

Video 
ID : 0 
Format : MPEG-4 Visual 
Format profile : Simple@L1 
Format settings, BVOP : No 
Format settings, QPel : No 
Format settings, GMC : No warppoints 
Format settings, Matrix : Default (H.263) 
Codec ID : DIVX 
Codec ID/Info : Project Mayo 
Codec ID/Hint : DivX 4 
Duration : 1h 25mn 
Bit rate : 1 199 Kbps 
Width : 720 pixels 
Height : 576 pixels 
Display aspect ratio : 5:4 
Frame rate : 25.000 fps 
Standard : PAL 
Color space : YUV 
Chroma subsampling : 4:2:0 
Bit depth : 8 bits 
Scan type : Progressive 
Compression mode : Lossy 
Bits/(Pixel*Frame) : 0.116 
Stream size : 732 MiB (89%) 
Writing library : avc2.0.11.1110 

Audio 
ID : 1 
Format : MPEG Audio 
Format version : Version 1 
Format profile : Layer 3 
Mode : Joint stereo 
Mode extension : MS Stereo 
Codec ID : 55 
Codec ID/Hint : MP3 
Duration : 1h 25mn 
Bit rate mode : Constant 
Bit rate : 128 Kbps 
Channel(s) : 2 channels 
Sampling rate : 48.0 KHz 
Compression mode : Lossy 
Stream size : 78.1 MiB (10%) 
Alignment : Aligned on interleaves 
Interleave, duration : 24 ms (0.60 video frame) 
Writing library : LAME3.96.1 
"
